<?xml version="1.0" encoding="UTF-8" standalone="no"?>
<svg
   xmlns:dc="http://purl.org/dc/elements/1.1/"
   xmlns:cc="http://creativecommons.org/ns#"
   xmlns:rdf="http://www.w3.org/1999/02/22-rdf-syntax-ns#"
   xmlns:svg="http://www.w3.org/2000/svg"
   xmlns="http://www.w3.org/2000/svg"
   xmlns:sodipodi="http://sodipodi.sourceforge.net/DTD/sodipodi-0.dtd"
   xmlns:inkscape="http://www.inkscape.org/namespaces/inkscape"
   height="650"
   version="1.1"
   viewBox="0 0 675 487.49999"
   width="900"
   id="svg21"
   sodipodi:docname="encrypt.svg"
   inkscape:export-filename="/home/christoph/Documents/sandbox/etherpgp/img/actions/decrypt.png"
   inkscape:export-xdpi="96.139999"
   inkscape:export-ydpi="96.139999"
   inkscape:version="0.92.3 (2405546, 2018-03-11)">
  <metadata
     id="metadata27">
    <rdf:RDF>
      <cc:Work
         rdf:about="">
        <dc:format>image/svg+xml</dc:format>
        <dc:type
           rdf:resource="http://purl.org/dc/dcmitype/StillImage" />
        <dc:title></dc:title>
      </cc:Work>
    </rdf:RDF>
  </metadata>
  <defs
     id="defs25" />
  <sodipodi:namedview
     pagecolor="#ffffff"
     bordercolor="#666666"
     borderopacity="1"
     objecttolerance="10"
     gridtolerance="10"
     guidetolerance="10"
     inkscape:pageopacity="0"
     inkscape:pageshadow="2"
     inkscape:window-width="2311"
     inkscape:window-height="1678"
     id="namedview23"
     showgrid="false"
     units="px"
     inkscape:zoom="0.67882251"
     inkscape:cx="206.32749"
     inkscape:cy="168.8849"
     inkscape:window-x="0"
     inkscape:window-y="0"
     inkscape:window-maximized="0"
     inkscape:current-layer="surface1-5" />
  <rect
     style="fill:#79bb3c;fill-opacity:1;stroke:none;stroke-width:0.94978178;stroke-miterlimit:10;stroke-dasharray:none;stroke-opacity:1"
     id="rect837"
     width="674.05017"
     height="486.5502"
     x="0.47489089"
     y="0.47487068" />
  <g
     id="surface1"
     transform="matrix(0.74999999,0,0,0.74999999,145.5,51.75)">
    <g
       transform="translate(-1.2020513e-6)"
       id="surface1-5">
      <path
         inkscape:connector-curvature="0"
         d="M 512,256 C 512,397.38672 397.38672,512 256,512 114.61719,512 0,397.38672 0,256 0,114.61328 114.61719,0 256,0 397.38672,0 512,114.61328 512,256 Z m 0,0"
         style="fill:#f72c1d;fill-opacity:1;fill-rule:nonzero;stroke:none"
         id="path2" />
      <path
         inkscape:connector-curvature="0"
         d="M 510.95703,279.05469 331.0625,99.15625 195.04687,93.402344 135,415.41406 l 95.30859,95.3086 C 238.75781,511.5625 247.32812,512 256,512 389.61328,512 499.29687,409.63281 510.95703,279.05469 Z m 0,0"
         style="fill:#ab4319;fill-opacity:1;fill-rule:nonzero;stroke:none"
         id="path4" />
      <path
         inkscape:connector-curvature="0"
         d="M 355.77344,330.85547 H 321.29297 V 164.80859 c 0,-36 -29.28906,-65.289059 -65.29297,-65.289059 -36,0 -65.28906,29.289059 -65.28906,65.289059 V 330.85547 H 156.23047 V 164.80859 c 0,-55.01171 44.75781,-99.769528 99.76953,-99.769528 55.01562,0 99.77344,44.757818 99.77344,99.769528 z m 0,0"
         style="fill:#ffffff;fill-opacity:1;fill-rule:nonzero;stroke:none"
         id="path6" />
      <path
         inkscape:connector-curvature="0"
         d="m 256,65.039062 c -0.0781,0 -0.16016,0.0039 -0.23828,0.0039 v 34.480469 c 0.082,0 0.16015,-0.0039 0.23828,-0.0039 36,0 65.29297,29.289059 65.29297,65.289059 v 166.04297 h 34.48047 V 164.80859 c 0,-55.01171 -44.75782,-99.769528 -99.77344,-99.769528 z m 0,0"
         style="fill:#e8ebf5;fill-opacity:1;fill-rule:nonzero;stroke:none"
         id="path8" />
      <path
         inkscape:connector-curvature="0"
         d="M 135,213.01172 H 377 V 415.41016 H 135 Z m 0,0"
         style="fill:#ffd400;fill-opacity:1;fill-rule:nonzero;stroke:none"
         id="path10" />
      <path
         inkscape:connector-curvature="0"
         d="M 255.76172,213.01172 H 377 V 415.41016 H 255.76172 Z m 0,0"
         style="fill:#fdb811;fill-opacity:1;fill-rule:nonzero;stroke:none"
         id="path12" />
      <path
         inkscape:connector-curvature="0"
         d="m 320,238.21094 h 78 v 38.99609 h -78 z m 0,0"
         style="fill:#fd6814;fill-opacity:1;fill-rule:nonzero;stroke:none"
         id="path14" />
      <path
         inkscape:connector-curvature="0"
         d="m 320,294.71484 h 78 v 38.9961 h -78 z m 0,0"
         style="fill:#fd6814;fill-opacity:1;fill-rule:nonzero;stroke:none"
         id="path16" />
      <path
         inkscape:connector-curvature="0"
         d="m 320,351.21875 h 78 v 38.99609 h -78 z m 0,0"
         style="fill:#fd6814;fill-opacity:1;fill-rule:nonzero;stroke:none"
         id="path18" />
    </g>
  </g>
</svg>
